<?xml version="1.0" encoding="UTF-8" standalone="no"?>
<!-- Created with Inkscape (http://www.inkscape.org/) -->

<svg
   xmlns:dc="http://purl.org/dc/elements/1.1/"
   xmlns:cc="http://creativecommons.org/ns#"
   xmlns:rdf="http://www.w3.org/1999/02/22-rdf-syntax-ns#"
   xmlns:svg="http://www.w3.org/2000/svg"
   xmlns="http://www.w3.org/2000/svg"
   xmlns:sodipodi="http://sodipodi.sourceforge.net/DTD/sodipodi-0.dtd"
   xmlns:inkscape="http://www.inkscape.org/namespaces/inkscape"
   id="svg4136"
   version="1.1"
   inkscape:version="0.91 r13725"
   width="900"
   height="1200"
   viewBox="0 0 900 1200"
   sodipodi:docname="Kobi_p.svg">
  <metadata
     id="metadata4142">
    <rdf:RDF>
      <cc:Work
         rdf:about="">
        <dc:format>image/svg+xml</dc:format>
        <dc:type
           rdf:resource="http://purl.org/dc/dcmitype/StillImage" />
        <dc:title></dc:title>
      </cc:Work>
    </rdf:RDF>
  </metadata>
  <defs
     id="defs4140">
    <inkscape:path-effect
       effect="powerstroke"
       id="path-effect4156"
       is_visible="true"
       offset_points="0,1 | 67.981453,-24.302854"
       sort_points="true"
       interpolator_type="Linear"
       interpolator_beta="0.2"
       start_linecap_type="square"
       linejoin_type="round"
       miter_limit="4"
       end_linecap_type="square" />
    <inkscape:path-effect
       effect="powerstroke"
       id="path-effect4154"
       is_visible="true"
       offset_points="0,1 | 69.644117,-10.347522"
       sort_points="true"
       interpolator_type="Linear"
       interpolator_beta="0.2"
       start_linecap_type="zerowidth"
       linejoin_type="round"
       miter_limit="4"
       end_linecap_type="zerowidth" />
    <inkscape:path-effect
       effect="powerstroke"
       id="path-effect4152"
       is_visible="true"
       offset_points="83.544702,-0.73194507 | 70.000027,-5.5754509"
       sort_points="true"
       interpolator_type="Linear"
       interpolator_beta="0.2"
       start_linecap_type="zerowidth"
       linejoin_type="round"
       miter_limit="4"
       end_linecap_type="round" />
    <inkscape:path-effect
       effect="powerstroke"
       id="path-effect4150"
       is_visible="true"
       offset_points="0,1 | 72,1"
       sort_points="true"
       interpolator_type=""
       interpolator_beta="0.2"
       start_linecap_type="round"
       linejoin_type="round"
       miter_limit="4"
       end_linecap_type="round" />
    <inkscape:path-effect
       effect="powerstroke"
       id="path-effect4148"
       is_visible="true"
       offset_points="6.117846,0.018917794 | 12.588031,14.149463 | 28.974367,2.4526764"
       sort_points="true"
       interpolator_type="Linear"
       interpolator_beta="0.2"
       start_linecap_type="zerowidth"
       linejoin_type="round"
       miter_limit="4"
       end_linecap_type="zerowidth" />
    <inkscape:path-effect
       effect="powerstroke"
       id="path-effect4148-4"
       is_visible="true"
       offset_points="0.075058431,14.128183 | 11.676433,-0.6097376 | 11.679418,-0.48276126"
       sort_points="true"
       interpolator_type="Linear"
       interpolator_beta="0.2"
       start_linecap_type="round"
       linejoin_type="round"
       miter_limit="4"
       end_linecap_type="zerowidth" />
    <inkscape:path-effect
       effect="powerstroke"
       id="path-effect4148-3"
       is_visible="true"
       offset_points="0.075058431,5.9017021 | 11.676433,-0.25470294 | 11.679418,-0.20166168"
       sort_points="true"
       interpolator_type="Linear"
       interpolator_beta="0.2"
       start_linecap_type="round"
       linejoin_type="round"
       miter_limit="4"
       end_linecap_type="zerowidth" />
  </defs>
  <sodipodi:namedview
     pagecolor="#ffffff"
     bordercolor="#666666"
     borderopacity="1"
     objecttolerance="10"
     gridtolerance="10"
     guidetolerance="10"
     inkscape:pageopacity="0"
     inkscape:pageshadow="2"
     inkscape:window-width="1536"
     inkscape:window-height="803"
     id="namedview4138"
     showgrid="false"
     inkscape:zoom="0.53"
     inkscape:cx="625.18868"
     inkscape:cy="464.83256"
     inkscape:window-x="-8"
     inkscape:window-y="-8"
     inkscape:window-maximized="1"
     inkscape:current-layer="svg4136" />
  <path
     style="opacity:0.98999999;fill:#000000;fill-rule:evenodd;stroke:#000000;stroke-width:1px;stroke-linecap:butt;stroke-linejoin:miter;stroke-opacity:1"
     d="m 19.339622,939.15094 c 0.424327,0.35323 24.511106,-27.71432 40.466419,-47.57421 1.94842,-2.09013 7.19589,-8.50967 14.087466,-17.54787 6.895284,-9.04305 15.441744,-20.71383 23.97221,-33.29022 0.300001,-0.44886 0.599995,-0.89889 0.899905,-1.35 1.951638,-2.85101 4.813628,-7.36793 8.127338,-12.73888 3.30131,-5.35086 7.11905,-11.66028 10.91766,-17.98663 7.84171,-13.05991 15.14129,-25.41412 19.61269,-32.8592 0.39515,-0.64923 0.84352,-1.49978 1.31612,-2.46339 0.47422,-0.96689 1.0354,-2.17616 1.63119,-3.50278 1.20598,-2.6853 2.65463,-6.07658 4.2686,-9.953 3.22856,-7.75433 7.14062,-17.50304 11.11498,-27.49015 4.25041,-10.68081 7.74449,-19.54153 11.51173,-28.97422 3.49177,-8.74292 6.40036,-15.91693 8.12791,-19.81279 6.81092,-15.36894 8.22845,-28.84462 10.62068,-38.14533 1.46552,-5.88635 2.97216,-14.70215 4.6797,-22.84312 0.87526,-4.17296 1.81117,-8.22811 2.8532,-11.8996 1.05078,-3.70232 2.14768,-6.78882 3.28127,-9.06019 0.50457,-1.01005 1.11655,-2.40417 1.77824,-3.98235 0.59961,-1.43011 1.53979,-3.73683 2.36243,-5.74326 1.79785,-4.38497 4.01781,-9.75589 6.56968,-15.4207 2.55767,-5.67767 5.41138,-11.56653 8.47022,-17.00634 3.07983,-5.47716 6.23521,-10.25949 9.3381,-13.82377 7.37331,-8.52456 11.17492,-17.74148 14.57961,-26.6569 3.466,-9.07597 6.5474,-17.85896 12.59463,-27.97476 1.60275,-2.60261 3.77219,-6.29559 6.25138,-10.53082 2.48914,-4.25224 5.26527,-9.00769 8.11041,-13.78302 2.88229,-4.8377 5.66365,-9.40611 8.32809,-13.56539 2.65237,-4.14045 4.90459,-7.42636 6.5418,-9.42988 4.37155,-5.46151 10.3978,-12.64 17.12139,-19.63402 6.7961,-7.06946 13.65421,-13.2612 19.51855,-16.89108 11.06272,-7.04619 19.37571,-10.84709 25.86601,-13.04439 6.4312,-2.1773 11.36873,-2.8874 16.23902,-3.50954 2.51702,-0.3189 6.54203,-0.84872 11.93592,-1.4821 5.32579,-0.62539 11.72124,-1.31907 18.62984,-1.92539 13.92992,-1.22254 29.38304,-2.0358 41.7374,-1.30172 15.72659,0.9168 30.14616,2.0977 42.26777,3.77312 8.57891,0.938 15.03915,2.02026 19.53029,3.25975 4.24596,1.14114 8.07792,2.00053 13.10178,3.55263 4.74179,1.46497 9.10119,3.1542 12.62155,5.1992 4.23825,2.49342 10.34149,6.59863 16.1535,10.75158 2.91818,2.08517 5.63017,4.08664 8.05499,5.935 2.48097,1.89116 4.28258,3.33228 5.56398,4.41746 5.40785,4.79142 11.14459,10.89576 16.67165,17.39417 5.50542,6.47298 10.63975,13.1439 14.86219,18.99311 3.26418,4.58168 7.58975,9.31255 12.14515,13.76444 4.60298,4.49841 9.7412,9.00347 14.78493,13.12559 5.0174,4.10059 10.16978,8.00783 14.67007,11.17545 4.48426,3.15634 8.73437,5.86891 12.02108,7.61809 5.64118,2.9774 10.14057,5.17924 15.13905,7.35833 4.98061,2.17131 10.28087,4.24349 17.56538,7.02047 9.20654,3.54388 18.45989,6.47468 26.08749,8.78227 2.90642,0.87929 8.18843,2.44562 10.10033,3.01877 3.06212,0.91795 4.79959,1.4577 6.20307,1.9464 -3.62112,-1.4174 36.79842,13.88968 39.16338,14.8122 15.34303,5.98492 30.44698,12.34435 40.82426,18.28216 1.84909,1.01254 4.49044,2.60987 7.654,4.56036 2.69033,1.65872 7.18035,4.45796 10.44114,6.46367 7.33669,4.51279 15.42252,9.34624 21.63794,12.24477 0.77936,0.27523 1.21149,0.36203 1.69676,0.90094 0.62789,0.69731 1.70321,2.47825 2.72855,6.62244 0.26101,0.93512 0.30965,1.54525 0.31126,1.83467 0.002,0.32264 -0.046,0.69199 -0.31302,1.2737 -0.76139,1.65849 -1.99278,2.87291 -4.52154,6.38931 -6.10334,8.33124 -17.04059,21.74059 -25.52722,33.71683 -7.53663,10.48665 -13.9424,21.26635 -19.46893,30.65349 -5.6426,9.5843 -10.24804,17.49511 -14.56619,23.06081 -0.87786,1.19014 -2.37246,2.91149 -4.33106,4.97501 -1.95624,2.06104 -4.27762,4.36135 -6.8524,6.767 -5.14763,4.80951 -11.06517,9.81255 -16.33325,13.50654 -5.73363,4.00879 -13.74878,7.4512 -22.51365,10.28609 -8.70929,2.81691 -17.86538,4.94193 -25.75106,6.42742 -0.73746,0.15867 -2.05598,0.37868 -3.8192,0.64397 -1.78835,0.26906 -3.92481,0.56856 -6.44238,0.90486 -4.98576,0.666 -11.19512,1.44021 -17.71856,2.21678 -13.06732,1.55558 -27.32846,3.11251 -35.59581,3.83904 -8.61656,0.75214 -17.99782,0.86559 -26.61928,1.03269 -8.10062,0.15701 -15.57999,0.35915 -20.85262,1.2424 -0.28947,0.0458 -0.57353,0.0939 -0.85183,0.14434 a 0.69606358,1.7785497 71.911136 0 0 -1.87941,1.5472 c 0.0596,0.0345 -3.19874,8.87484 -6.76246,19.26451 -1.76522,5.14634 -3.65797,10.8256 -5.20291,15.84476 -1.55207,5.04232 -2.83198,9.67142 -3.42448,12.86523 -0.21567,1.28063 -0.82294,3.8657 -1.50194,7.16878 -0.67806,3.29846 -1.42951,7.32764 -1.94677,11.58724 -1.02054,8.40415 -1.18392,18.12206 2.29806,24.79094 5.92346,11.28429 16.12415,20.3974 23.23913,37.95544 3.51859,8.68685 10.07494,23.06367 16.51564,37.46449 6.45286,14.428 12.79674,28.89618 15.92474,37.82069 1.55262,4.42881 4.31029,14.58701 7.59585,27.55183 3.28532,12.96385 7.10156,28.73754 10.79568,44.45714 3.69408,15.7194 7.26554,31.3825 10.06144,44.1253 2.79509,12.7391 4.81677,22.5754 5.40456,26.5823 2.37208,16.1803 6.87301,43.8333 7.00698,43.8122 0.13402,-0.021 -4.09885,-27.7175 -6.20056,-43.9236 -0.53088,-4.0908 -2.48447,-13.9181 -5.21646,-26.6864 -2.73098,-12.7635 -6.23754,-28.4472 -9.86664,-44.1866 -3.62902,-15.7392 -7.38111,-31.53648 -10.60313,-44.52681 -3.22087,-12.98569 -5.91148,-23.17277 -7.43738,-27.73284 -3.03199,-9.06303 -9.2795,-23.64364 -15.60367,-38.11614 -6.33215,-14.49077 -12.74025,-28.87047 -16.10689,-37.54208 -6.6543,-17.13214 -17.78881,-28.81616 -22.60948,-38.53639 -2.85886,-5.74793 -2.71327,-14.50416 -1.56482,-22.83914 0.56623,-4.10948 1.36147,-8.01443 2.09337,-11.24085 0.67739,-2.98615 1.45005,-5.98742 1.71657,-7.20196 0.61573,-2.95909 1.89337,-7.32814 3.50955,-12.35206 1.62206,-5.04216 3.49558,-10.4676 5.34974,-15.66264 3.67251,-10.28976 7.04753,-19.0557 7.10712,-19.02122 l -1.87941,1.5472 c 0.242,-0.0373 0.49183,-0.073 0.7494,-0.1071 4.86708,-0.59519 11.97852,-0.58211 20.17392,-0.51367 8.535,0.0713 18.15915,0.19797 27.04921,-0.33568 8.42265,-0.49911 22.78868,-1.82932 35.90058,-3.15027 6.55555,-0.66044 12.8079,-1.31972 17.84192,-1.87177 2.43939,-0.26752 4.81342,-0.53411 6.53824,-0.73517 1.74682,-0.20361 3.27497,-0.3921 4.15121,-0.51601 8.14212,-1.28836 17.73339,-3.25645 26.932,-5.97528 9.13782,-2.70086 18.20048,-6.23249 25.12952,-10.75948 5.89131,-3.82682 12.3207,-8.95758 17.83143,-13.77425 2.7487,-2.40251 5.34158,-4.79095 7.5008,-6.88688 2.1411,-2.07833 4.02336,-4.03222 5.31536,-5.5477 5.04429,-6.0877 10.32968,-14.6807 15.99867,-23.8499 5.77854,-9.3464 12.07044,-19.4905 19.47736,-29.39746 8.91424,-11.75438 19.32399,-23.68697 26.49812,-32.63214 1.41718,-1.69733 4.44676,-4.78225 6.136,-7.52737 1.03644,-1.6843 1.91255,-3.64881 2.35451,-6.00601 0.44121,-2.35317 0.38836,-4.77067 -0.10068,-7.3029 -1.02601,-5.2711 -2.47584,-9.3611 -4.64255,-12.58631 -2.28847,-3.40646 -4.9227,-5.18385 -7.17274,-6.4246 -5.14404,-2.64339 -12.39113,-7.2041 -19.66547,-11.95986 -3.67861,-2.40496 -6.96681,-4.5963 -10.18896,-6.72872 -3.0482,-2.01731 -5.94629,-3.92063 -8.05548,-5.22222 -11.42312,-6.82708 -27.8324,-14.01927 -43.06178,-20.21207 -16.44678,-6.68784 -29.05121,-11.28591 -38.6909,-15.3384 -1.96225,-0.85559 -4.59047,-1.80618 -7.43632,-2.78147 -2.60097,-0.89138 -6.63692,-2.22341 -10.02536,-3.36084 -7.44254,-2.49831 -16.06974,-5.48076 -24.49963,-8.9711 -7.08583,-2.95417 -11.91941,-5.09602 -16.24477,-7.22624 -4.28123,-2.10849 -8.22745,-4.28725 -13.44885,-7.30438 -2.17849,-1.27673 -5.40566,-3.43768 -9.55933,-6.4998 -4.10579,-3.02681 -8.60099,-6.55666 -13.23016,-10.48899 -4.59743,-3.90537 -9.09201,-8.00975 -13.03845,-12.02328 -3.98771,-4.05551 -7.14972,-7.75059 -9.20469,-10.80672 -4.342,-6.43698 -9.68852,-13.79423 -15.47318,-20.97884 -5.75925,-7.15304 -12.11968,-14.34287 -18.49005,-20.33907 -1.78958,-1.71751 -4.13427,-3.74791 -6.68372,-5.84634 -2.56062,-2.10763 -5.52507,-4.44559 -8.5132,-6.73083 -5.94665,-4.54785 -12.50891,-9.28612 -17.48108,-12.51614 -5.87099,-3.79027 -12.38946,-6.50369 -17.92746,-8.49064 -5.06072,-1.81571 -11.25134,-3.64302 -13.71006,-4.48471 -6.61108,-2.08411 -15.08932,-3.65481 -24.0957,-4.85318 -12.90386,-1.37989 -28.7888,-2.19473 -44.44586,-2.70681 -14.34073,-0.48212 -31.27555,0.82642 -45.56408,2.42786 -7.21281,0.80841 -13.89267,1.70809 -19.40365,2.53035 -5.52391,0.82419 -9.90566,1.57508 -12.57818,2.09526 -5.35577,1.04726 -12.02421,2.38886 -20.48222,5.67048 -8.38492,3.25326 -18.15878,8.26573 -30.21392,16.37054 -7.97611,5.42477 -16.13921,13.47669 -23.0375,21.16336 -6.99395,7.79325 -13.35488,15.96089 -17.67139,21.91477 -2.13415,2.93973 -4.73069,7.08978 -7.29093,11.40853 -2.56575,4.32806 -5.48874,9.49335 -8.17686,14.33508 -2.73421,4.92473 -5.43431,9.89189 -7.7637,14.20792 -1.78009,3.29828 -4.89403,9.1037 -5.68872,10.57892 -6.69538,11.91936 -10.11767,22.69679 -13.09133,31.38791 -3.02382,8.83773 -5.59018,15.59856 -10.63226,21.87407 -3.96975,4.86398 -7.58829,10.80178 -10.77879,16.83958 -3.21234,6.07913 -6.12776,12.52293 -8.63738,18.51856 -2.51479,6.008 -4.66053,11.65892 -6.32387,16.16878 -0.70224,1.90403 -1.67896,4.59056 -2.12756,5.82657 -11.02579,30.37873 9.4496,-26.03129 -1.20646,3.30475 -1.48533,3.45448 -2.67098,7.51324 -3.64935,11.61638 -0.98752,4.14156 -1.8272,8.60254 -2.55895,12.93508 -1.56533,9.268 -2.47541,16.68508 -3.59599,22.65455 -2.12927,11.27317 -2.36705,22.33236 -8.0381,36.74898 -1.60665,4.04405 -4.48485,11.60039 -7.77562,20.2977 -3.6788,9.72286 -6.85226,18.15697 -11.01514,29.1217 -3.81339,10.04424 -7.54663,19.80358 -10.59187,27.56001 -1.5238,3.88121 -2.86313,7.22979 -3.95122,9.85755 -0.55551,1.34156 -1.00525,2.39787 -1.41326,3.3237 -0.42983,0.97535 -0.66351,1.46771 -0.86296,1.87247 -3.94831,7.23592 -11.37364,20.462 -18.68961,33.30863 -3.68479,6.47038 -7.2632,12.70648 -10.44582,18.19146 -3.176881,5.47509 -5.803621,9.93332 -7.553814,12.78927 -0.286997,0.45309 -0.574122,0.90519 -0.861303,1.35621 -7.998503,12.75521 -16.039939,24.65572 -22.455366,33.96249 -6.424656,9.32017 -11.216181,16.03615 -12.726527,18.44871 -15.025458,20.46487 -38.260447,49.24182 -37.835468,49.59559 z"
     id="path4146"
     inkscape:connector-curvature="0"
     sodipodi:nodetypes="csssssssssszzsssssssssssssssscsszzzc"
     inkscape:original-d="m 19.339622,939.15094 c 0,0 23.660232,-28.42279 39.150944,-48.5849 3.517373,-4.57808 20.684003,-27.06845 37.501388,-52.97775 7.367126,-11.34999 29.467886,-49.61265 37.673466,-63.93703 4.55365,-7.94925 30.04982,-76.04316 36.7903,-92.11474 6.24877,-14.89919 7.06085,-27.15379 9.32939,-37.44714 2.52666,-11.46453 5.07118,-34.0309 10.30923,-45.50447 2.90913,-6.37224 14.64974,-41.45052 28.79636,-58.31733 12.42156,-14.81004 12.7113,-31.91564 25.44892,-53.94682 5.91471,-10.23017 21.47891,-38.93081 29.07595,-48.91979 8.67589,-11.40752 24.823,-30.72365 38.67439,-39.80159 23.11292,-15.14778 36.1935,-17.63967 46.40061,-19.29749 10.20711,-1.65783 48.21482,-7.09252 74.92453,-5.88134 26.70971,1.21118 51.73481,3.26138 65.16981,7.29643 6.89163,2.06982 19.29734,5.02544 28.68043,10.86359 9.24499,5.75222 25.1927,17.57184 31.22523,23.09868 11.78038,10.79288 24.18571,26.56724 32.74853,38.85259 10.65391,15.28551 38.46808,36.75747 49.32694,42.75118 10.87467,6.00243 16.84287,8.72963 31.19904,14.45472 17.63864,7.0341 35.75211,11.8269 42.17608,14.43042 17.75774,7.19689 59.09125,21.56309 80.87016,34.32241 8.01509,4.69569 27.49719,18.07434 38.82148,23.58979 3.04373,1.48245 6.07554,3.86258 8.12031,13.26714 1.51869,6.98498 -2.37395,9.84911 -6.45655,15.16698 -6.63508,8.64265 -17.31589,21.30473 -26.01268,33.1745 -14.94212,20.39368 -25.40108,41.84731 -34.75558,53.48083 -4.38078,5.44807 -17.92465,18.21115 -29.08216,25.7287 -12.66768,8.53504 -34.13552,13.951 -50.16312,16.72413 -6.68354,1.15641 -47.33044,5.71535 -64.00393,6.93893 -17.50956,1.28494 -37.99905,-0.0231 -48.14813,1.68794 0,0 -13.26673,35.21257 -15.67813,47.50521 -1.07136,5.46147 -8.04088,29.99883 -1.69788,42.41446 5.37572,10.52229 16.036,20.88079 22.9243,38.24591 6.88831,17.36512 25.91658,57.48641 32.07547,75.4717 6.15889,17.9853 31.25364,126.73131 33.49057,142.92461 2.23692,16.1932 6.60377,43.8679 6.60377,43.8679"
     inkscape:path-effect="#path-effect4148" />
</svg>
